<?xml version="1.0" encoding="utf-8"?>
<!-- Generator: Adobe Illustrator 23.0.0, SVG Export Plug-In . SVG Version: 6.00 Build 0)  -->
<svg version="1.1" id="Слой_1" xmlns="http://www.w3.org/2000/svg" xmlns:xlink="http://www.w3.org/1999/xlink" x="0px" y="0px"
	 viewBox="0 0 198.4 209.9" style="enable-background:new 0 0 198.4 209.9;" xml:space="preserve">
<style type="text/css">
	.st0{clip-path:url(#SVGID_2_);fill:url(#SVGID_3_);}
	.st1{clip-path:url(#SVGID_5_);fill:url(#SVGID_6_);}
	.st2{clip-path:url(#SVGID_8_);fill:url(#SVGID_9_);}
	.st3{clip-path:url(#SVGID_11_);fill:url(#SVGID_12_);}
	.st4{fill:#5F74B5;}
</style>
<g>
	<g>
		<defs>
			<polygon id="SVGID_1_" points="75.2,6.2 3.5,173.2 43.7,173.2 116.5,6.2 			"/>
		</defs>
		<clipPath id="SVGID_2_">
			<use xlink:href="#SVGID_1_"  style="overflow:visible;"/>
		</clipPath>
		
			<linearGradient id="SVGID_3_" gradientUnits="userSpaceOnUse" x1="-217.4618" y1="-259.8498" x2="-216.4618" y2="-259.8498" gradientTransform="matrix(31.966 -181.2885 -181.2885 -31.966 -40112.4023 -47549.3359)">
			<stop  offset="0" style="stop-color:#5F74B5"/>
			<stop  offset="5.102040e-03" style="stop-color:#5F74B5"/>
			<stop  offset="0.7194" style="stop-color:#6693CE"/>
			<stop  offset="0.9643" style="stop-color:#689DD7"/>
			<stop  offset="0.9655" style="stop-color:#689DD7"/>
			<stop  offset="1" style="stop-color:#689DD7"/>
		</linearGradient>
		<polygon class="st0" points="-25.1,168.2 6.9,-13.1 145,11.2 113,192.5 		"/>
	</g>
	<g>
		<defs>
			<polygon id="SVGID_4_" points="116.5,6.2 94.8,55.9 150,173.2 192,173.2 			"/>
		</defs>
		<clipPath id="SVGID_5_">
			<use xlink:href="#SVGID_4_"  style="overflow:visible;"/>
		</clipPath>
		
			<linearGradient id="SVGID_6_" gradientUnits="userSpaceOnUse" x1="-211.2022" y1="-266.6042" x2="-210.2022" y2="-266.6042" gradientTransform="matrix(123.4849 44.9448 44.9448 -123.4849 38152.3945 -23359.0117)">
			<stop  offset="0" style="stop-color:#5F74B5"/>
			<stop  offset="9.183670e-02" style="stop-color:#6693CE"/>
			<stop  offset="0.6633" style="stop-color:#627EBE"/>
			<stop  offset="1" style="stop-color:#627EBE"/>
		</linearGradient>
		<polygon class="st1" points="106.2,-25 245.6,25.7 180.6,204.4 41.1,153.7 		"/>
	</g>
	<g>
		<defs>
			<polygon id="SVGID_7_" points="121.1,16.4 140.3,58.7 88.8,173.2 51.8,173.2 			"/>
		</defs>
		<clipPath id="SVGID_8_">
			<use xlink:href="#SVGID_7_"  style="overflow:visible;"/>
		</clipPath>
		
			<linearGradient id="SVGID_9_" gradientUnits="userSpaceOnUse" x1="-217.9876" y1="-259.834" x2="-216.9876" y2="-259.834" gradientTransform="matrix(28.9072 -163.9407 -163.9407 -28.9072 -36214.6914 -43069.707)">
			<stop  offset="0" style="stop-color:#784547"/>
			<stop  offset="0.6735" style="stop-color:#CE5156"/>
			<stop  offset="0.9337" style="stop-color:#CE5156"/>
			<stop  offset="1" style="stop-color:#CE5156"/>
		</linearGradient>
		<polygon class="st2" points="25,168.5 54.5,1.3 167.1,21.1 137.6,188.3 		"/>
	</g>
	<g>
		<defs>
			<polygon id="SVGID_10_" points="88.8,173.2 102.7,142.3 178,142.3 192,173.2 			"/>
		</defs>
		<clipPath id="SVGID_11_">
			<use xlink:href="#SVGID_10_"  style="overflow:visible;"/>
		</clipPath>
		
			<linearGradient id="SVGID_12_" gradientUnits="userSpaceOnUse" x1="-210.7433" y1="-269.0379" x2="-209.7433" y2="-269.0379" gradientTransform="matrix(91.0985 33.1571 33.1571 -91.0985 28218.7031 -17378.3105)">
			<stop  offset="0" style="stop-color:#784547"/>
			<stop  offset="2.040820e-02" style="stop-color:#784547"/>
			<stop  offset="0.2194" style="stop-color:#CE5156"/>
			<stop  offset="0.8469" style="stop-color:#CE5156"/>
			<stop  offset="1" style="stop-color:#88484B"/>
		</linearGradient>
		<polygon class="st3" points="100.9,109.1 201.9,145.9 179.9,206.4 78.9,169.6 		"/>
	</g>
</g>
<g>
	<path class="st4" d="M16.6,200.3l-1.8,5.4h-2.3l5.9-17.3h2.7l5.9,17.3h-2.4l-1.8-5.4H16.6z M22.3,198.6l-1.7-5
		c-0.4-1.1-0.6-2.2-0.9-3.2h-0.1c-0.3,1-0.5,2.1-0.9,3.1l-1.7,5H22.3z"/>
	<path class="st4" d="M40.8,188.5v17.3h-2.3v-15.4h-5.7v5.2c0,3.7-0.2,7.9-2.6,9.6c-0.6,0.4-1.6,0.8-2.6,0.8l-0.3-1.8
		c0.7-0.1,1.4-0.5,1.8-0.9c1.4-1.4,1.5-4.7,1.5-7.5v-7.3H40.8z"/>
	<path class="st4" d="M46.9,188.5v6.5c0.5-0.1,1.5-0.1,2.1-0.1c3.5,0,6.7,1.6,6.7,5.4c0,1.6-0.5,2.8-1.3,3.7c-1.4,1.5-3.8,2-6.2,2
		c-1.6,0-2.7-0.1-3.5-0.2v-17.2H46.9z M46.9,204c0.5,0.1,1.1,0.1,1.8,0.1c2.5,0,4.6-1.2,4.6-3.8c0-2.7-2.2-3.7-4.6-3.7
		c-0.6,0-1.3,0.1-1.8,0.1V204z"/>
	<path class="st4" d="M67.1,187.8v1.5c3.6,0.2,7.3,2.4,7.3,7.8c0,5.4-3.6,7.5-7.3,7.7v1.6h-2.2v-1.6c-3.6-0.2-7.3-2.2-7.3-7.6
		c0-5.7,4-7.7,7.3-7.9v-1.5H67.1z M64.9,190.9c-2.3,0.1-5,1.7-5,6.2c0,4.1,2.5,5.9,5,6.1V190.9z M67.1,203.2c2.5-0.2,5-1.9,5-6.1
		c0-4.4-2.5-6-5-6.1V203.2z"/>
	<path class="st4" d="M79.4,200.3l-1.8,5.4h-2.3l5.9-17.3h2.7l5.9,17.3h-2.4l-1.8-5.4H79.4z M85.1,198.6l-1.7-5
		c-0.4-1.1-0.6-2.2-0.9-3.2h-0.1c-0.3,1-0.5,2.1-0.9,3.1l-1.7,5H85.1z"/>
	<path class="st4" d="M102.9,198v1.7h-6.3V198H102.9z"/>
	<path class="st4" d="M122.4,188.5v17.3h-2.3v-15.4h-5.7v5.2c0,3.7-0.2,7.9-2.6,9.6c-0.6,0.4-1.6,0.8-2.6,0.8l-0.3-1.8
		c0.7-0.1,1.4-0.5,1.8-0.9c1.4-1.4,1.5-4.7,1.5-7.5v-7.3H122.4z"/>
	<path class="st4" d="M128.4,188.5v7.3c0,2.7-0.1,5-0.2,7.3l0.1,0c0.9-1.8,1.9-3.7,3.2-5.7l5.6-8.9h2.2v17.3h-2.1v-7.4
		c0-2.8,0-4.8,0.2-7l-0.1,0c-0.8,1.9-2,3.9-3.2,5.8l-5.4,8.6h-2.4v-17.3H128.4z"/>
	<path class="st4" d="M154.9,188.5v15.4l1.5,0.1l-0.2,5.9h-1.7l-0.2-4.2h-10.9l-0.2,4.2h-1.7l-0.2-5.9l1.3-0.1
		c0.6-1.2,1.3-2.4,1.7-3.8c0.6-2,0.8-4.3,0.8-7.3v-4.4H154.9z M147.3,193.6c0,2.8-0.3,5.1-0.9,7c-0.4,1.2-0.9,2.4-1.4,3.3h7.6v-13.6
		h-5.4V193.6z"/>
	<path class="st4" d="M168.2,197.6h-6.7v6.2h7.5v1.9h-9.7v-17.3h9.3v1.9h-7.1v5.5h6.7V197.6z"/>
	<path class="st4" d="M171.9,188.7c1.1-0.2,2.5-0.3,4.3-0.3c2.2,0,3.8,0.5,4.8,1.4c0.9,0.8,1.5,2.1,1.5,3.6c0,1.6-0.5,2.8-1.3,3.7
		c-1.2,1.3-3.1,1.9-5.3,1.9c-0.7,0-1.3,0-1.8-0.2v6.9h-2.2V188.7z M174.1,197c0.5,0.1,1.1,0.2,1.8,0.2c2.7,0,4.3-1.3,4.3-3.7
		c0-2.3-1.6-3.4-4.1-3.4c-1,0-1.7,0.1-2.1,0.2V197z"/>
</g>
</svg>
