<svg id="Слой_1" xmlns="http://www.w3.org/2000/svg" xmlns:xlink="http://www.w3.org/1999/xlink" viewBox="0 0 198.4 209.9">
    <style>
        .st0{clip-path:url(#SVGID_2_);fill:url(#SVGID_3_)}.st1{clip-path:url(#SVGID_5_);fill:url(#SVGID_6_)}.st2{clip-path:url(#SVGID_8_);fill:url(#SVGID_9_)}.st3{clip-path:url(#SVGID_11_);fill:url(#SVGID_12_)}.st4{fill:#5f74b5}
    </style>
    <defs>
        <path id="SVGID_1_" d="M75.2 6.2l-71.7 167h40.2l72.8-167z"/>
    </defs>
    <clipPath id="SVGID_2_">
        <use xlink:href="#SVGID_1_" overflow="visible"/>
    </clipPath>
    <linearGradient id="SVGID_3_" gradientUnits="userSpaceOnUse" x1="-217.462" y1="-259.85" x2="-216.462" y2="-259.85" gradientTransform="scale(184.0852 -184.0852) rotate(80 -262.866 -.692)">
        <stop offset="0" stop-color="#5f74b5"/>
        <stop offset=".005" stop-color="#5f74b5"/>
        <stop offset=".719" stop-color="#6693ce"/>
        <stop offset=".964" stop-color="#689dd7"/>
        <stop offset=".966" stop-color="#689dd7"/>
        <stop offset="1" stop-color="#689dd7"/>
    </linearGradient>
    <path class="st0" d="M-25.1 168.2l32-181.3L145 11.2l-32 181.3z"/>
    <g>
        <defs>
            <path id="SVGID_4_" d="M116.5 6.2L94.8 55.9 150 173.2h42z"/>
        </defs>
        <clipPath id="SVGID_5_">
            <use xlink:href="#SVGID_4_" overflow="visible"/>
        </clipPath>
        <linearGradient id="SVGID_6_" gradientUnits="userSpaceOnUse" x1="-211.202" y1="-266.604" x2="-210.202" y2="-266.604" gradientTransform="scale(131.4099 -131.4099) rotate(-20 649.22 -734.397)">
            <stop offset="0" stop-color="#5f74b5"/>
            <stop offset=".092" stop-color="#6693ce"/>
            <stop offset=".663" stop-color="#627ebe"/>
            <stop offset="1" stop-color="#627ebe"/>
        </linearGradient>
        <path class="st1" d="M106.2-25l139.4 50.7-65 178.7-139.5-50.7z"/>
    </g>
    <g>
        <defs>
            <path id="SVGID_7_" d="M121.1 16.4l19.2 42.3-51.5 114.5h-37z"/>
        </defs>
        <clipPath id="SVGID_8_">
            <use xlink:href="#SVGID_7_" overflow="visible"/>
        </clipPath>
        <linearGradient id="SVGID_9_" gradientUnits="userSpaceOnUse" x1="-217.988" y1="-259.834" x2="-216.988" y2="-259.834" gradientTransform="scale(166.4698 -166.4698) rotate(80 -262.94 -.268)">
            <stop offset="0" stop-color="#784547"/>
            <stop offset=".673" stop-color="#ce5156"/>
            <stop offset=".934" stop-color="#ce5156"/>
            <stop offset="1" stop-color="#ce5156"/>
        </linearGradient>
        <path class="st2" d="M25 168.5L54.5 1.3l112.6 19.8-29.5 167.2z"/>
    </g>
    <g>
        <defs>
            <path id="SVGID_10_" d="M88.8 173.2l13.9-30.9H178l14 30.9z"/>
        </defs>
        <clipPath id="SVGID_11_">
            <use xlink:href="#SVGID_10_" overflow="visible"/>
        </clipPath>
        <linearGradient id="SVGID_12_" gradientUnits="userSpaceOnUse" x1="-210.743" y1="-269.038" x2="-209.743" y2="-269.038" gradientTransform="scale(96.945 -96.945) rotate(-20 653.856 -735.768)">
            <stop offset="0" stop-color="#784547"/>
            <stop offset=".02" stop-color="#784547"/>
            <stop offset=".219" stop-color="#ce5156"/>
            <stop offset=".847" stop-color="#ce5156"/>
            <stop offset="1" stop-color="#88484b"/>
        </linearGradient>
        <path class="st3" d="M100.9 109.1l101 36.8-22 60.5-101-36.8z"/>
    </g>
    <g>
        <path class="st4" d="M16.6 200.3l-1.8 5.4h-2.3l5.9-17.3h2.7l5.9 17.3h-2.4l-1.8-5.4h-6.2zm5.7-1.7l-1.7-5c-.4-1.1-.6-2.2-.9-3.2h-.1c-.3 1-.5 2.1-.9 3.1l-1.7 5h5.3z"/>
        <path class="st4" d="M40.8 188.5v17.3h-2.3v-15.4h-5.7v5.2c0 3.7-.2 7.9-2.6 9.6-.6.4-1.6.8-2.6.8l-.3-1.8c.7-.1 1.4-.5 1.8-.9 1.4-1.4 1.5-4.7 1.5-7.5v-7.3h10.2z"/>
        <path class="st4" d="M46.9 188.5v6.5c.5-.1 1.5-.1 2.1-.1 3.5 0 6.7 1.6 6.7 5.4 0 1.6-.5 2.8-1.3 3.7-1.4 1.5-3.8 2-6.2 2-1.6 0-2.7-.1-3.5-.2v-17.2h2.2zm0 15.5c.5.1 1.1.1 1.8.1 2.5 0 4.6-1.2 4.6-3.8 0-2.7-2.2-3.7-4.6-3.7-.6 0-1.3.1-1.8.1v7.3z"/>
        <path class="st4" d="M67.1 187.8v1.5c3.6.2 7.3 2.4 7.3 7.8s-3.6 7.5-7.3 7.7v1.6h-2.2v-1.6c-3.6-.2-7.3-2.2-7.3-7.6 0-5.7 4-7.7 7.3-7.9v-1.5h2.2zm-2.2 3.1c-2.3.1-5 1.7-5 6.2 0 4.1 2.5 5.9 5 6.1v-12.3zm2.2 12.3c2.5-.2 5-1.9 5-6.1 0-4.4-2.5-6-5-6.1v12.2z"/>
        <path class="st4" d="M79.4 200.3l-1.8 5.4h-2.3l5.9-17.3h2.7l5.9 17.3h-2.4l-1.8-5.4h-6.2zm5.7-1.7l-1.7-5c-.4-1.1-.6-2.2-.9-3.2h-.1c-.3 1-.5 2.1-.9 3.1l-1.7 5h5.3z"/>
        <path class="st4" d="M102.9 198v1.7h-6.3V198h6.3z"/>
        <path class="st4" d="M122.4 188.5v17.3h-2.3v-15.4h-5.7v5.2c0 3.7-.2 7.9-2.6 9.6-.6.4-1.6.8-2.6.8l-.3-1.8c.7-.1 1.4-.5 1.8-.9 1.4-1.4 1.5-4.7 1.5-7.5v-7.3h10.2z"/>
        <path class="st4" d="M128.4 188.5v7.3c0 2.7-.1 5-.2 7.3h.1c.9-1.8 1.9-3.7 3.2-5.7l5.6-8.9h2.2v17.3h-2.1v-7.4c0-2.8 0-4.8.2-7h-.1c-.8 1.9-2 3.9-3.2 5.8l-5.4 8.6h-2.4v-17.3h2.1z"/>
        <path class="st4" d="M154.9 188.5v15.4l1.5.1-.2 5.9h-1.7l-.2-4.2h-10.9l-.2 4.2h-1.7l-.2-5.9 1.3-.1c.6-1.2 1.3-2.4 1.7-3.8.6-2 .8-4.3.8-7.3v-4.4h9.8zm-7.6 5.1c0 2.8-.3 5.1-.9 7-.4 1.2-.9 2.4-1.4 3.3h7.6v-13.6h-5.4v3.3z"/>
        <path class="st4" d="M168.2 197.6h-6.7v6.2h7.5v1.9h-9.7v-17.3h9.3v1.9h-7.1v5.5h6.7v1.8z"/>
        <path class="st4" d="M171.9 188.7c1.1-.2 2.5-.3 4.3-.3 2.2 0 3.8.5 4.8 1.4.9.8 1.5 2.1 1.5 3.6 0 1.6-.5 2.8-1.3 3.7-1.2 1.3-3.1 1.9-5.3 1.9-.7 0-1.3 0-1.8-.2v6.9h-2.2v-17zm2.2 8.3c.5.1 1.1.2 1.8.2 2.7 0 4.3-1.3 4.3-3.7 0-2.3-1.6-3.4-4.1-3.4-1 0-1.7.1-2.1.2v6.7z"/>
    </g>
</svg>
